<?xml version="1.0" encoding="UTF-8"?>
<svg width="103px" height="103px" viewBox="0 0 103 103" version="1.1" xmlns="http://www.w3.org/2000/svg" xmlns:xlink="http://www.w3.org/1999/xlink">
    <!-- Generator: Sketch 51.2 (57519) - http://www.bohemiancoding.com/sketch -->
    <title>AliceOne Favicon</title>
    <desc>Created with Sketch.</desc>
    <defs>
        <circle id="path-1" cx="51.5" cy="51.5" r="51.5"></circle>
    </defs>
    <g id="AliceOne-Mockups-V2" stroke="none" stroke-width="1" fill="none" fill-rule="evenodd">
        <g id="AliceOne-Favicon">
            <mask id="mask-2" fill="white">
                <use xlink:href="#path-1"></use>
            </mask>
            <use id="Combined-Shape" fill="#212121" xlink:href="#path-1"></use>
            <path d="M50.1353167,25.9853748 C64.9884455,25.9853748 72.8720293,34.4895676 72.8720293,46.3954376 L72.8720293,77.0105318 L63.1603681,77.0105318 L63.0461133,73.7222439 C59.6184682,76.4435856 54.9340198,78.1444241 49.4497877,78.1444241 C38.3670685,78.1444241 28.9981718,71.6812376 28.9981718,61.2494277 C28.9981718,50.3640609 37.9100491,44.241042 49.4497877,44.241042 C54.5912553,44.241042 59.3899585,45.7151021 62.9318584,48.3230546 L62.9318584,45.9418806 C62.9318584,38.6849694 58.0189004,34.3761784 47.9644748,34.3761784 C43.3942813,34.3761784 39.8523814,35.2832923 37.2245201,36.3037954 L38.024304,27.6862133 C40.080891,26.8924887 44.30832,25.9853748 50.1353167,25.9853748 Z" id="Combined-Shape" fill="#FFFFFF" mask="url(#mask-2)"></path>
            <path d="M49.7685516,71.1230136 C55.3350715,71.1230136 61.9035649,68.3509243 61.9035649,61.6517084 C61.9035649,56.1075297 57.3390186,52.0648995 49.879882,52.0648995 C43.6453798,52.0648995 38.9695031,55.6455148 38.9695031,61.6517084 C38.9695031,67.5423982 43.8680406,71.1230136 49.7685516,71.1230136 Z" id="Path" fill="#212121" mask="url(#mask-2)"></path>
        </g>
    </g>
</svg>