<?xml version="1.0" encoding="UTF-8"?>
<svg width="103px" height="103px" viewBox="0 0 103 103" version="1.1" xmlns="http://www.w3.org/2000/svg" xmlns:xlink="http://www.w3.org/1999/xlink">
    <!-- Generator: Sketch 51.2 (57519) - http://www.bohemiancoding.com/sketch -->
    <title>New Alice Logo</title>
    <desc>Created with Sketch.</desc>
    <defs>
        <circle id="path-1" cx="51.5" cy="51.5" r="51.5"></circle>
        <path d="M12.4754482,19.6230136 C18.041968,19.6230136 24.6104615,16.8509243 24.6104615,10.1517084 C24.6104615,4.60752973 20.0459152,0.564899452 12.5867786,0.564899452 C6.35227631,0.564899452 1.67639963,4.14551484 1.67639963,10.1517084 C1.67639963,16.0423982 6.5749371,19.6230136 12.4754482,19.6230136 Z" id="path-3"></path>
    </defs>
    <g id="AliceOne-Mockups-V2" stroke="none" stroke-width="1" fill="none" fill-rule="evenodd">
        <g id="New-Alice-Logo">
            <mask id="mask-2" fill="white">
                <use xlink:href="#path-1"></use>
            </mask>
            <g id="Combined-Shape"></g>
            <path d="M105.920461,-39.0689655 C136.463901,-39.0689655 156.275862,-19.2570043 156.275862,11.2864359 L156.275862,121.903219 C156.275862,152.446659 136.463901,172.258621 105.920461,172.258621 L-4.69632274,172.258621 C-35.2397629,172.258621 -55.0517241,152.446659 -55.0517241,121.903219 L-55.0517241,11.2864359 C-55.0517241,-19.2570043 -35.2397629,-39.0689655 -4.69632274,-39.0689655 L105.920461,-39.0689655 Z" id="Path" fill="" mask="url(#mask-2)"></path>
            <path d="M50.1353167,25.9853748 C64.9884455,25.9853748 72.8720293,34.4895676 72.8720293,46.3954376 L72.8720293,77.0105318 L63.1603681,77.0105318 L63.0461133,73.7222439 C59.6184682,76.4435856 54.9340198,78.1444241 49.4497877,78.1444241 C38.3670685,78.1444241 28.9981718,71.6812376 28.9981718,61.2494277 C28.9981718,50.3640609 37.9100491,44.241042 49.4497877,44.241042 C54.5912553,44.241042 59.3899585,45.7151021 62.9318584,48.3230546 L62.9318584,45.9418806 C62.9318584,38.6849694 58.0189004,34.3761784 47.9644748,34.3761784 C43.3942813,34.3761784 39.8523814,35.2832923 37.2245201,36.3037954 L38.024304,27.6862133 C40.080891,26.8924887 44.30832,25.9853748 50.1353167,25.9853748 Z" id="Combined-Shape" fill="#FFFFFF" mask="url(#mask-2)"></path>
            <g id="Group-4" transform="translate(37.293103, 51.500000)">
                <mask id="mask-4" fill="white">
                    <use xlink:href="#path-3"></use>
                </mask>
                <g id="Path"></g>
                <path d="M68.6273572,-81.6896552 C99.1707974,-81.6896552 118.982759,-61.877694 118.982759,-31.3342538 L118.982759,79.2825296 C118.982759,109.82597 99.1707974,129.637931 68.6273572,129.637931 L-41.9894262,129.637931 C-72.5328664,129.637931 -92.3448276,109.82597 -92.3448276,79.2825296 L-92.3448276,-31.3342538 C-92.3448276,-61.877694 -72.5328664,-81.6896552 -41.9894262,-81.6896552 L68.6273572,-81.6896552 Z" id="Path" fill="" mask="url(#mask-4)"></path>
            </g>
        </g>
    </g>
</svg>